<?xml version="1.0" encoding="utf-8"?>
<!-- Generator: Adobe Illustrator 15.0.0, SVG Export Plug-In . SVG Version: 6.00 Build 0)  -->
<!DOCTYPE svg PUBLIC "-//W3C//DTD SVG 1.0//EN" "http://www.w3.org/TR/2001/REC-SVG-20010904/DTD/svg10.dtd">
<svg version="1.0" id="Layer_1" xmlns="http://www.w3.org/2000/svg" xmlns:xlink="http://www.w3.org/1999/xlink" x="0px" y="0px"
	 width="134.013px" height="141.497px" viewBox="0 0 134.013 141.497" enable-background="new 0 0 134.013 141.497"
	 xml:space="preserve">
<g>
	<path fill="#434343" d="M71.945,67.57l-4.316,4.3l5.928,9.229c0.216,0.191,0.489,0.299,0.777,0.303
		c0.312,0.004,0.604-0.113,0.809-0.314C75.773,80.15,74.109,73.807,71.945,67.57z"/>
	<path fill="#434343" d="M63.479,79.152c-0.12-0.877-0.529-3.838-0.529-3.838l4.397-4.565l4.316-4.3l6.145-6.119
		c0.763-0.758,0.952-1.805,0.063-2.697c-0.891-0.892-2.025-0.799-2.788-0.041l-6.225,6.201c-3.719-1.184-10.445-3.471-12.984-3.47
		c-0.354-0.001-0.509,0.039-0.563,0.056c-0.397,0.435-0.406,1.102-0.02,1.544l9.317,6.103l-4.625,4.606c0,0-3.568-0.736-4.09-0.805
		c-0.728-0.097-1.568,0.543-0.004,1.34c1.825,0.931,3.964,2.011,3.964,2.011s1.317,2.56,2.121,3.973
		C62.999,80.859,63.601,80.03,63.479,79.152z"/>
</g>
</svg>
