<?xml version="1.0" encoding="utf-8"?>
<!-- Generator: Adobe Illustrator 15.0.0, SVG Export Plug-In . SVG Version: 6.00 Build 0)  -->
<!DOCTYPE svg PUBLIC "-//W3C//DTD SVG 1.0//EN" "http://www.w3.org/TR/2001/REC-SVG-20010904/DTD/svg10.dtd">
<svg version="1.0" id="Layer_1" xmlns="http://www.w3.org/2000/svg" xmlns:xlink="http://www.w3.org/1999/xlink" x="0px" y="0px"
	 width="134.013px" height="141.497px" viewBox="0 0 134.013 141.497" enable-background="new 0 0 134.013 141.497"
	 xml:space="preserve">
<g>
	<path fill="#434343" d="M80.373,59.043c-1.956-1.418-4.547-1.14-5.949,0.569c1.419,0.474,2.791,1.171,4.068,2.099
		c1.276,0.93,2.368,2.024,3.269,3.238C82.901,63.049,82.326,60.467,80.373,59.043z"/>
	<path fill="#434343" d="M64.271,61.678c1.279-0.919,2.651-1.609,4.07-2.078c-1.403-1.692-3.994-1.97-5.949-0.563
		c-1.954,1.41-2.529,3.969-1.389,5.852C61.902,63.685,62.996,62.6,64.271,61.678z"/>
	<path fill="#434343" d="M77.199,71.178h-3.908c-0.128-0.587-0.427-0.961-1.02-1.044v-4.962H71.42v4.935
		c-0.646,0.146-1.05,0.589-1.05,1.575c0,0.892,0.628,1.427,1.405,1.427c0.021,0,1.371,0.004,1.515-1.057h3.908L77.199,71.178
		L77.199,71.178z"/>
	<path fill="#434343" d="M81.272,71.11c0-0.298-0.019-0.592-0.045-0.884c-0.418-4.735-4.15-8.519-8.869-9.001h-0.001
		c-0.208-0.021-0.421-0.023-0.633-0.033c-0.128-0.005-0.253-0.02-0.382-0.02H71.34h-0.004c-5.49,0-9.938,4.448-9.938,9.938
		c0,0.046,0.006,0.089,0.008,0.133c0.035,2.796,1.232,5.303,3.122,7.083c-0.631,0.318-1.066,0.966-1.066,1.723
		c0,1.07,0.867,1.938,1.938,1.938c1.024,0,1.854-0.796,1.925-1.802c1.061,0.469,2.216,0.766,3.434,0.835
		c0.193,0.012,0.385,0.029,0.58,0.029c0.224,0,0.44-0.02,0.661-0.033c1.232-0.081,2.401-0.393,3.473-0.883
		c0.045,1.03,0.888,1.854,1.929,1.854c1.071,0,1.938-0.866,1.938-1.938c0-0.788-0.471-1.462-1.146-1.765
		C80.085,76.476,81.272,73.936,81.272,71.11z M71.429,78.172c-3.943,0-7.151-3.191-7.151-7.113s3.208-7.113,7.151-7.113
		c3.942,0,7.151,3.191,7.151,7.113S75.371,78.172,71.429,78.172z"/>
</g>
</svg>
