<?xml version="1.0" encoding="utf-8"?>


<!-- The icon can be used freely in both personal and commercial projects with no attribution required, but always appreciated. 
You may NOT sub-license, resell, rent, redistribute or otherwise transfer the icon without express written permission from iconmonstr.com -->


<!DOCTYPE svg PUBLIC "-//W3C//DTD SVG 1.1//EN" "http://www.w3.org/Graphics/SVG/1.1/DTD/svg11.dtd">

<svg version="1.1" xmlns="http://www.w3.org/2000/svg" xmlns:xlink="http://www.w3.org/1999/xlink" x="0px" y="0px"

	 width="512px" height="512px" viewBox="0 0 512 512" enable-background="new 0 0 512 512" xml:space="preserve">

<path id="vimeo-icon" d="M460.802,160.227c-1.844,40.119-29.852,95.053-84.027,164.78c-56.02,72.83-103.412,109.249-142.18,109.249

	c-24.006,0-44.337-22.17-60.935-66.535c-11.087-40.662-22.17-81.323-33.253-121.982c-12.327-44.341-25.548-66.536-39.69-66.536

	c-3.08,0-13.869,6.49-32.332,19.413L49,173.635c20.331-17.871,40.392-35.742,60.127-53.637

	c27.115-23.439,47.474-35.767,61.045-37.015c32.062-3.08,51.801,18.846,59.209,65.781c8,50.635,13.543,82.13,16.651,94.458

	c9.243,42.014,19.409,62.997,30.52,62.997c8.623,0,21.575-13.629,38.851-40.878c17.246-27.255,26.498-47.989,27.738-62.238

	c2.464-23.521-6.788-35.31-27.738-35.31c-9.868,0-20.033,2.272-30.496,6.759c20.249-66.344,58.936-98.569,116.036-96.734

	C443.277,79.067,463.232,106.532,460.802,160.227z"/>

</svg>

